<svg enable-background="new 0 0 452 452" viewBox="0 0 452 452" xmlns="http://www.w3.org/2000/svg" xmlns:xlink="http://www.w3.org/1999/xlink"><linearGradient id="a" gradientUnits="userSpaceOnUse" x1="384.666" x2="66.4679" y1="384.7289" y2="66.5309"><stop offset="0" stop-color="#6ebd46"/><stop offset="1" stop-color="#f8ef6b"/></linearGradient><circle cx="225.57" cy="225.63" fill="url(#a)" r="225"/><path d="m117.64 201.58-4.68 11.57h-13.86l25.86-59.55h13.87l25.44 59.55h-14.38l-4.68-11.57zm13.87-33.94-9.44 23.14h18.8z"/><path d="m185.69 165.6v3.83h10.8v9.1h-10.8v34.62h-13.02v-34.62h-6.12v-9.1h6.12v-4.34c0-10.21 7.66-15.65 16.84-15.65 4.25 0 8.76 1.11 11.99 3.23l-4.68 9.53c-1.7-1.28-3.83-1.96-5.7-1.96-3.05 0-5.43 1.7-5.43 5.36z"/><path d="m214.95 175.64c3.15-5.61 8.34-8.68 15.14-8.76v12.33c-9.36-.85-15.14 4.17-15.14 11.91v22.03h-13.1v-45.77h13.1z"/><path d="m250.84 154.37c0 4.25-2.89 7.32-7.06 7.32s-7.06-3.06-7.06-7.32 2.89-7.32 7.06-7.32 7.06 3.07 7.06 7.32zm-13.61 58.78v-45.77h13.1v45.77z"/><path d="m302.31 176.57-8.85 6.38c-2.47-3.06-5.95-4.93-10.46-4.85-6.38 0-10.89 4.93-10.89 12.25 0 7.4 4.51 12.42 10.89 12.42 4.68 0 8.34-1.79 10.63-5.36l9.02 6.12c-3.83 6.38-10.97 10.12-20.33 10.12-13.87 0-23.31-9.36-23.31-23.22 0-14.04 9.44-23.48 23.48-23.48 8.76.01 15.73 3.5 19.82 9.62z"/><path d="m336.16 207.79c-3.06 3.83-8 5.96-14.38 5.96-9.78 0-15.74-5.96-15.74-14.29 0-8.59 6.21-13.7 17.44-13.78h12.59v-.85c0-4.85-3.23-7.66-9.53-7.66-4.08 0-8.85 1.36-13.61 4l-4.08-9.02c6.81-3.4 12.67-5.27 20.67-5.27 12.25 0 19.31 6.12 19.4 16.42l.08 29.86h-12.85v-5.37zm-.08-10.29v-4.08h-10.29c-5.02 0-7.49 1.53-7.49 5.19 0 3.49 2.72 5.79 7.15 5.79 5.52-.01 9.86-2.99 10.63-6.9z"/><path d="m146.95 245.73-3.06 6.75c-5.67-3.78-12.33-5.31-17.37-5.31-8.1 0-13.41 3.06-13.41 8.37 0 16.2 35.46 7.74 35.37 30.6 0 10.53-9.27 17.28-22.77 17.28-9.18 0-18.18-3.96-24.12-9.63l3.24-6.48c5.85 5.67 13.86 8.91 20.97 8.91 9.09 0 14.76-3.69 14.76-9.72.09-16.56-35.37-7.74-35.37-30.33 0-9.9 8.73-16.29 21.78-16.29 7.29 0 14.76 2.34 19.98 5.85z"/><path d="m223.26 271.65c0 17.73-14.58 31.86-32.94 31.86-18.45 0-33.03-14.13-33.03-31.86 0-17.82 14.58-31.68 33.03-31.68 18.36 0 32.94 13.95 32.94 31.68zm-58.67 0c0 13.86 11.7 24.93 25.74 24.93s25.56-11.07 25.56-24.93-11.52-24.84-25.56-24.84-25.74 10.98-25.74 24.84z"/><path d="m236.41 303.15v-63h7.2v63z"/><path d="m297.51 296.31v6.84h-34.83v-63h7.2v56.16z"/><path d="m347.91 245.73-3.06 6.75c-5.67-3.78-12.33-5.31-17.37-5.31-8.1 0-13.41 3.06-13.41 8.37 0 16.2 35.46 7.74 35.37 30.6 0 10.53-9.27 17.28-22.77 17.28-9.18 0-18.18-3.96-24.12-9.63l3.24-6.48c5.85 5.67 13.86 8.91 20.97 8.91 9.09 0 14.76-3.69 14.76-9.72.09-16.56-35.37-7.74-35.37-30.33 0-9.9 8.73-16.29 21.78-16.29 7.29 0 14.76 2.34 19.98 5.85z"/></svg>