<svg enable-background="new 0 0 452 452" viewBox="0 0 452 452" xmlns="http://www.w3.org/2000/svg" xmlns:xlink="http://www.w3.org/1999/xlink"><linearGradient id="a" gradientUnits="userSpaceOnUse" x1="384.666" x2="66.4679" y1="384.7289" y2="66.5309"><stop offset="0" stop-color="#6ebd46"/><stop offset="1" stop-color="#f8ef6b"/></linearGradient><circle cx="225.57" cy="225.63" fill="url(#a)" r="225"/><path d="m67.28 205.7v12.93h28.75v11.14h-28.75v13.19h32.84v11.14h-46.28v-59.55h45.34v11.14h-31.9z"/><path d="m138.74 251.55c-3.4 1.96-7.66 3.15-11.91 3.15-8.17 0-14.38-4.68-14.38-14.12v-21.18h-6.38v-9.02h6.38v-12.59h13.02v12.59h12.42v9.1h-12.42v18.89c0 3.83 1.62 5.36 4.42 5.27 1.7 0 3.74-.6 6.12-1.7z"/><path d="m192.84 225.35v28.75h-13.1v-24.92c0-5.78-3.4-9.36-9.02-9.36-6.55.08-10.55 5.02-10.55 11.74v22.54h-13.1v-63.12h13.1v25.44c3.23-5.7 8.68-8.51 15.82-8.59 10.3 0 16.85 6.8 16.85 17.52z"/><path d="m217.67 195.32c0 4.25-2.89 7.32-7.06 7.32s-7.06-3.06-7.06-7.32 2.89-7.32 7.06-7.32 7.06 3.07 7.06 7.32zm-13.61 58.79v-45.77h13.1v45.77z"/><path d="m274.92 231.22c0 13.95-9.87 23.39-24.5 23.39-14.72 0-24.58-9.44-24.58-23.39 0-14.04 9.87-23.31 24.58-23.31 14.63 0 24.5 9.28 24.5 23.31zm-35.9.17c0 7.49 4.59 12.59 11.4 12.59 6.72 0 11.4-5.1 11.4-12.59s-4.68-12.59-11.4-12.59c-6.81 0-11.4 5.11-11.4 12.59z"/><path d="m322.89 199.83-2.89 6.38c-5.36-3.57-11.65-5.02-16.42-5.02-7.66 0-12.68 2.89-12.68 7.91 0 15.31 33.52 7.32 33.43 28.92 0 9.95-8.76 16.33-21.52 16.33-8.68 0-17.18-3.74-22.8-9.1l3.06-6.12c5.53 5.36 13.1 8.42 19.82 8.42 8.59 0 13.95-3.49 13.95-9.19.08-15.65-33.43-7.32-33.43-28.67 0-9.36 8.25-15.4 20.59-15.4 6.9.01 13.96 2.23 18.89 5.54z"/><path d="m338.29 254.11v-59.55h6.8v59.55z"/><path d="m399.7 199.83-2.89 6.38c-5.36-3.57-11.65-5.02-16.42-5.02-7.66 0-12.68 2.89-12.68 7.91 0 15.31 33.52 7.32 33.43 28.92 0 9.95-8.76 16.33-21.52 16.33-8.68 0-17.18-3.74-22.8-9.1l3.06-6.12c5.53 5.36 13.1 8.42 19.82 8.42 8.59 0 13.95-3.49 13.95-9.19.08-15.65-33.43-7.32-33.43-28.67 0-9.36 8.25-15.4 20.59-15.4 6.9.01 13.96 2.23 18.89 5.54z"/></svg>