<svg enable-background="new 0 0 452 452" viewBox="0 0 452 452" xmlns="http://www.w3.org/2000/svg"><circle cx="225.57" cy="225.63" r="225"/><g fill="#fff"><path d="m164.17 254.11-28.84-38.2v38.2h-12.85v-59.55h12.25l28.92 38.28v-38.28h12.76v59.55z"/><path d="m202.87 195.32c0 4.25-2.89 7.32-7.06 7.32s-7.06-3.06-7.06-7.32 2.89-7.32 7.06-7.32 7.06 3.07 7.06 7.32zm-13.61 58.79v-45.77h13.1v45.77z"/><path d="m254.25 199.83-2.89 6.38c-5.36-3.57-11.65-5.02-16.42-5.02-7.66 0-12.67 2.89-12.67 7.91 0 15.31 33.52 7.32 33.43 28.92 0 9.95-8.76 16.33-21.52 16.33-8.68 0-17.18-3.74-22.8-9.1l3.06-6.12c5.53 5.36 13.1 8.42 19.82 8.42 8.59 0 13.95-3.49 13.95-9.19.08-15.65-33.43-7.32-33.43-28.67 0-9.36 8.25-15.4 20.59-15.4 6.88.01 13.95 2.23 18.88 5.54z"/><path d="m269.64 254.11v-59.55h6.8v59.55z"/><path d="m331.06 199.83-2.89 6.38c-5.36-3.57-11.65-5.02-16.42-5.02-7.66 0-12.67 2.89-12.67 7.91 0 15.31 33.52 7.32 33.43 28.92 0 9.95-8.76 16.33-21.52 16.33-8.68 0-17.18-3.74-22.8-9.1l3.06-6.12c5.53 5.36 13.1 8.42 19.82 8.42 8.59 0 13.95-3.49 13.95-9.19.08-15.65-33.43-7.32-33.43-28.67 0-9.36 8.25-15.4 20.59-15.4 6.88.01 13.94 2.23 18.88 5.54z"/></g></svg>