<svg enable-background="new 0 0 452 452" viewBox="0 0 452 452" xmlns="http://www.w3.org/2000/svg" xmlns:xlink="http://www.w3.org/1999/xlink"><linearGradient id="a" gradientUnits="userSpaceOnUse" x1="384.666" x2="66.4679" y1="384.7289" y2="66.5309"><stop offset="0" stop-color="#6ebd46"/><stop offset="1" stop-color="#f8ef6b"/></linearGradient><circle cx="225.57" cy="225.63" fill="url(#a)" r="225"/><path d="m116.02 205.96v48.15h-13.44v-48.15h-18.12v-11.4h49.76v11.4z"/><path d="m165.96 248.75c-3.06 3.83-8 5.96-14.38 5.96-9.78 0-15.74-5.96-15.74-14.29 0-8.59 6.21-13.7 17.44-13.78h12.59v-.85c0-4.85-3.23-7.66-9.53-7.66-4.08 0-8.85 1.36-13.61 4l-4.08-9.02c6.81-3.4 12.68-5.27 20.67-5.27 12.25 0 19.31 6.12 19.4 16.42l.08 29.86h-12.85v-5.37zm-.09-10.3v-4.08h-10.29c-5.02 0-7.49 1.53-7.49 5.19 0 3.49 2.72 5.79 7.15 5.79 5.53-.01 9.86-2.98 10.63-6.9z"/><path d="m235.79 225.35v28.75h-13.1v-24.92c0-5.78-3.4-9.36-9.02-9.36-6.55.08-10.46 5.02-10.46 11.74v22.54h-13.1v-45.77h13.1v8c3.23-5.7 8.68-8.42 15.82-8.51 10.21.01 16.76 6.81 16.76 17.53z"/><path d="m286.4 199.83-2.89 6.38c-5.36-3.57-11.65-5.02-16.42-5.02-7.66 0-12.68 2.89-12.68 7.91 0 15.31 33.52 7.32 33.43 28.92 0 9.95-8.76 16.33-21.52 16.33-8.68 0-17.18-3.74-22.8-9.1l3.06-6.12c5.53 5.36 13.1 8.42 19.82 8.42 8.59 0 13.95-3.49 13.95-9.19.08-15.65-33.43-7.32-33.43-28.67 0-9.36 8.25-15.4 20.59-15.4 6.9.01 13.96 2.23 18.89 5.54z"/><path d="m301.8 254.11v-59.55h6.8v59.55z"/><path d="m363.21 199.83-2.89 6.38c-5.36-3.57-11.65-5.02-16.42-5.02-7.66 0-12.68 2.89-12.68 7.91 0 15.31 33.52 7.32 33.43 28.92 0 9.95-8.76 16.33-21.52 16.33-8.68 0-17.18-3.74-22.8-9.1l3.06-6.12c5.53 5.36 13.1 8.42 19.82 8.42 8.59 0 13.95-3.49 13.95-9.19.08-15.65-33.43-7.32-33.43-28.67 0-9.36 8.25-15.4 20.59-15.4 6.9.01 13.96 2.23 18.89 5.54z"/></svg>