<?xml version="1.0" encoding="utf-8"?>
<!-- Generator: Adobe Illustrator 16.0.0, SVG Export Plug-In . SVG Version: 6.00 Build 0)  -->
<!DOCTYPE svg PUBLIC "-//W3C//DTD SVG 1.1//EN" "http://www.w3.org/Graphics/SVG/1.1/DTD/svg11.dtd">
<svg version="1.1" id="Logo" xmlns="http://www.w3.org/2000/svg" xmlns:xlink="http://www.w3.org/1999/xlink" x="0px" y="0px"
	 width="570px" height="408.189px" viewBox="0 0.155 570 408.189" enable-background="new 0 0.155 570 408.189"
	 xml:space="preserve">
<rect x="4.377" y="125.688" fill-rule="evenodd" clip-rule="evenodd" fill="#F8EF6B" width="30.614" height="26.871"/>
<polygon fill-rule="evenodd" clip-rule="evenodd" fill="#D5DE2C" points="34.991,125.688 4.377,125.688 4.377,152.559 "/>
<polygon fill-rule="evenodd" clip-rule="evenodd" fill="#6EBD46" points="34.991,152.561 34.991,125.688 4.377,125.688 "/>
<polygon fill-rule="evenodd" clip-rule="evenodd" fill="#ACCF37" points="34.991,125.688 4.377,125.688 19.684,139.125 "/>
<g>
	<path fill-rule="evenodd" clip-rule="evenodd" fill="#43495C" d="M176.346,216.949c-4.362-3.818-9.894-7.051-16.516-9.699
		c-6.621-2.648-14.256-5.062-22.825-7.244c-7.829-1.869-14.256-3.662-19.359-5.377c-5.063-1.713-9.036-3.582-11.958-5.607
		c-2.882-2.025-4.868-4.207-5.959-6.545c-1.091-2.336-1.636-5.141-1.636-8.412c0-5.453,2.337-10.09,7.011-13.906
		c4.674-3.818,11.218-5.725,19.632-5.725c7.478,0,14.879,1.439,22.202,4.322s14.723,7.051,22.202,12.502l15.425-21.732
		c-8.414-6.701-17.411-11.803-26.993-15.309c-9.583-3.506-20.372-5.26-32.369-5.26c-8.102,0-15.581,1.131-22.397,3.39
		c-6.855,2.259-12.698,5.492-17.567,9.699s-8.686,9.231-11.491,15.073c-2.765,5.844-4.167,12.35-4.167,19.516
		c0,7.635,1.207,14.1,3.622,19.398c2.415,5.297,5.96,9.814,10.556,13.553c4.596,3.74,10.322,6.857,17.099,9.35
		c6.817,2.492,14.568,4.752,23.332,6.777c7.635,1.869,13.828,3.662,18.619,5.375c4.752,1.715,8.492,3.545,11.257,5.492
		c2.727,1.947,4.596,4.09,5.609,6.426c1.012,2.34,1.519,4.986,1.519,7.947c0,6.389-2.61,11.451-7.829,15.191
		c-5.22,3.738-12.27,5.609-21.151,5.609c-10.283,0-19.476-1.832-27.577-5.492c-8.102-3.662-16.126-8.92-24.072-15.775
		l-17.295,20.566c9.816,8.881,20.489,15.463,32.018,19.748c11.53,4.283,23.605,6.428,36.225,6.428
		c8.569,0,16.437-1.092,23.605-3.273c7.128-2.182,13.282-5.375,18.345-9.582c5.104-4.207,9.076-9.348,11.959-15.424
		c2.844-6.076,4.284-13.01,4.284-20.801c0-6.855-1.129-12.814-3.389-17.879C184.059,225.207,180.709,220.766,176.346,216.949z"/>
	<path fill-rule="evenodd" clip-rule="evenodd" fill="#43495C" d="M418.955,256.207c-2.035-1.82-3.949-3.652-5.746-5.496
		l-19.302,44.18h29.446c4.771-11.195,8.615-20.236,11.804-27.754c-4.647-2.373-8.967-5.129-12.957-8.264
		C421.092,258.004,420.011,257.115,418.955,256.207z"/>
	<path fill-rule="evenodd" clip-rule="evenodd" fill="#43495C" d="M492.531,130.127H465.89l-44.318,101.441
		c0.386,0.539,0.78,1.07,1.185,1.602c5.604,7.361,12.143,13.301,19.277,17.734c11.618-27.494,11.893-28.521,36.709-86.422
		c26.471,61.254,31.706,74.035,55.389,130.408h30.383L492.531,130.127z"/>
	<rect x="5.547" y="171.492" fill-rule="evenodd" clip-rule="evenodd" fill="#43495C" width="28.511" height="123.396"/>
	<path fill-rule="evenodd" clip-rule="evenodd" fill="#43495C" d="M348.225,153.664c-7.767-7.375-17.023-13.141-27.771-17.3
		c-10.751-4.159-22.557-6.237-35.426-6.237h-61.434v164.764h61.434c12.869,0,24.675-2.119,35.426-6.355
		c10.748-4.236,20.005-10.041,27.771-17.416c7.769-7.375,13.771-16.125,18.008-26.246c4.236-10.119,6.354-20.988,6.354-32.6
		s-2.118-22.439-6.354-32.482C361.995,169.748,355.993,161.041,348.225,153.664z M338.107,235.301
		c-2.746,6.867-6.63,12.787-11.573,17.73c-4.943,4.984-10.984,8.826-18.045,11.613c-7.104,2.746-14.949,4.119-23.617,4.119h-32.562
		v-112.51h32.562c8.668,0,16.514,1.412,23.617,4.236c7.061,2.863,13.102,6.785,18.045,11.848c4.943,5.02,8.827,10.984,11.573,17.848
		c2.743,6.828,4.116,14.359,4.116,22.559C342.223,220.941,340.85,228.475,338.107,235.301z"/>
</g>
<g>
	<path fill-rule="evenodd" clip-rule="evenodd" fill="#ACCF37" d="M437.241,100.073c22.213-0.235,38.899-18.64,43.759-40.635
		c-28.777,21.253-47.71,7.588-48.675,40.34c5.075-21.569,20.659-12.321,32.851-24.985
		C453.691,91.899,441.068,80.639,437.241,100.073z"/>
	<path fill-rule="evenodd" clip-rule="evenodd" fill="#ACCF37" d="M563.051,176.223c-1.391-11.301-4.259-22.088-10.19-31.42
		c-30.928-48.676-99.684-48.27-129.365,2.461c3.133-4.375,6.597-8.276,10.383-11.699c2.642-2.387,5.441-4.541,8.402-6.467
		c7.209-4.686,15.228-7.785,24.049-9.303c8.827-1.517,17.952-1.08,27.37,1.317c9.421,2.396,17.635,6.403,24.644,12.03
		c7.011,5.627,12.644,12.238,16.896,19.84c4.251,7.598,6.929,15.969,8.03,25.107c1.103,9.139,0.459,18.416-1.938,27.838
		c-1.728,6.795-4.215,13.07-7.46,18.828l9.163,20.973c1.139-1.393,2.243-2.828,3.312-4.305c6.697-9.244,11.503-19.598,14.415-31.061
		C563.677,198.904,564.44,187.523,563.051,176.223z"/>
	<path fill-rule="evenodd" clip-rule="evenodd" fill="#ACCF37" d="M510.988,249.357c-22.477,14.611-48.227,14.428-68.953,1.545
		l-0.001,0.002l-0.43-0.27l-0.076-0.047l-0.161-0.104c-0.366-0.234-0.73-0.471-1.093-0.713l-0.074-0.049
		c-0.382-0.256-0.761-0.514-1.14-0.777l-0.107-0.074l-0.03-0.023c-0.388-0.273-0.775-0.549-1.16-0.83l-0.075-0.057l-0.033-0.023
		c-0.393-0.289-0.786-0.584-1.174-0.883l-0.043-0.035l-0.025-0.018c-0.402-0.312-0.799-0.625-1.196-0.945l-0.014-0.012
		c-0.404-0.326-0.804-0.656-1.203-0.992l-0.018-0.016l-0.015-0.014c-0.378-0.316-0.751-0.643-1.123-0.971l-0.065-0.055l-0.045-0.041
		c-0.381-0.338-0.761-0.68-1.137-1.029l-0.008-0.008c-0.382-0.354-0.76-0.709-1.135-1.072l-0.031-0.031l-0.1-0.096
		c-0.341-0.332-0.681-0.668-1.019-1.008l-0.071-0.072c-0.356-0.359-0.71-0.727-1.062-1.098l-0.063-0.068
		c-0.329-0.346-0.654-0.695-0.978-1.051l-0.108-0.119l-0.04-0.045c-0.354-0.393-0.704-0.789-1.053-1.188l-0.006-0.008
		c-0.343-0.395-0.685-0.797-1.022-1.201l-0.051-0.062l-0.04-0.049c-0.328-0.396-0.654-0.795-0.978-1.199l-0.014-0.02l-0.026-0.031
		l-0.045-0.057c-0.333-0.422-0.662-0.846-0.99-1.275l-0.057-0.074l-0.019-0.025c-0.28-0.375-0.562-0.744-0.837-1.125l-0.019-0.025
		l-0.018-0.023l-0.019-0.025l-0.013-0.018l-0.005-0.008l-0.02-0.025l-0.018-0.025l-0.018-0.025l-0.146-0.201l0.001-0.004
		c-19.914-27.727-15.753-64.113-6.018-97.614c5.955-20.483,16.137-33.269,6.776-55.032c-13.454-31.28-46.993-43.355-53.647-76.868
		c-11.945,41.485-5.954,90.536,36.481,108.467c9.188-31.619-17.82-24.907-27.574-70.719c11.578,30.03,37.546,36.721,37.241,57.389
		c-0.417,28.449-20.831,54.367-24.646,83.32c-0.863,7.273-0.854,14.516,0.031,21.725c1.39,11.301,4.787,21.773,10.189,31.42
		c2.447,4.369,5.277,8.486,8.49,12.348c1.367,1.574,2.795,3.148,4.312,4.711l0.085,0.088l0.019,0.016l0.065,0.07l0.084,0.086
		l0.007,0.006l0.079,0.08l0.078,0.078l0.007,0.008l0.086,0.088l0.064,0.064l0.021,0.021l0.086,0.086l0.051,0.053l0.034,0.033
		l0.087,0.086l0.038,0.039l0.047,0.049l0.087,0.086l0.026,0.025l0.061,0.061l0.086,0.086l0.012,0.012l0.075,0.074l0.085,0.086h0.001
		l0.087,0.088l0.073,0.072l0.014,0.012l0.089,0.088l0.06,0.059l0.028,0.025l0.088,0.088l0.046,0.043l0.041,0.041l0.088,0.088
		l0.034,0.033l0.055,0.053l0.089,0.086l0.02,0.02l0.067,0.066l0.089,0.086l0.008,0.006l0.082,0.08l0.082,0.078l0.008,0.008
		l0.089,0.086l0.069,0.064l0.021,0.021l0.089,0.086l0.055,0.051l0.034,0.035l0.091,0.086l0.041,0.039l0.051,0.047l0.09,0.086
		l0.027,0.025l0.063,0.059l0.09,0.086l0.013,0.014l0.078,0.074l0.091,0.084l0.001,0.002l0.091,0.084l0.076,0.072l0.016,0.014
		l0.091,0.086l0.063,0.059l0.029,0.027l0.092,0.086l0.049,0.045l0.043,0.041l0.092,0.084l0.036,0.033l0.057,0.053l0.093,0.086
		l0.021,0.02l0.072,0.064l0.092,0.086l0.007,0.008l0.086,0.078l0.087,0.078l0.007,0.008l0.094,0.084l0.071,0.066l0.023,0.02
		l0.093,0.086l0.059,0.053l0.035,0.031l0.096,0.088l0.042,0.037l0.053,0.047l0.094,0.086l0.029,0.025l0.065,0.061l0.096,0.084
		l0.015,0.014l0.079,0.072l0.096,0.086c1.056,0.908,2.137,1.797,3.244,2.666l0.188,0.145l0.187,0.148l0.055,0.041l0.135,0.104
		l0.188,0.146l0.108,0.082l0.081,0.061l0.189,0.145l0.163,0.123l0.027,0.02l0.189,0.145l0.191,0.141l0.028,0.023l0.164,0.119
		l0.19,0.141l0.083,0.061l0.111,0.08l0.192,0.141l0.14,0.1l0.054,0.039l0.194,0.141l0.194,0.139h0.002l0.192,0.137l0.196,0.137
		l0.057,0.041l0.14,0.096l0.196,0.137l0.113,0.078l0.083,0.057l0.198,0.135l0.171,0.117l0.026,0.018l0.198,0.135l0.199,0.133
		l0.03,0.02l0.169,0.111l0.2,0.133l0.088,0.059l0.112,0.074l0.2,0.133l0.146,0.094l0.055,0.035l0.203,0.129l0.202,0.131l0.002,0.002
		l0.2,0.127l0.203,0.127l0.06,0.039l0.144,0.09l0.204,0.127l0.119,0.072l0.086,0.053l0.205,0.127l0.179,0.109l0.026,0.016
		l0.207,0.125l0.206,0.125l0.032,0.02l0.175,0.105l0.208,0.123l0.092,0.053l0.116,0.07l0.208,0.121l0.153,0.088l0.056,0.033
		l0.209,0.121l0.211,0.121l0.003,0.002l0.207,0.119l0.211,0.117l0.063,0.037l0.148,0.082l0.211,0.119l0.125,0.068l0.087,0.049
		l0.399,0.217l0.001,0.002l0.027,0.016l0.213,0.115l0.215,0.115l0.034,0.02l0.18,0.096l0.216,0.115l0.095,0.051l0.12,0.062
		l0.218,0.113l0.157,0.084l0.059,0.029l0.217,0.113l0.218,0.109c5.98,3.055,12.502,5.48,19.568,7.277
		c12.561,3.193,24.608,3.791,36.148,1.795c11.225-1.941,21.423-5.768,30.598-11.471c-2.64-6.287-5.053-12.033-7.368-17.535
		C513.084,247.951,512.047,248.668,510.988,249.357z"/>
	<path fill-rule="evenodd" clip-rule="evenodd" fill="#ACCF37" d="M434.221,41.475c-3.912,13.562,8.776,20.687-4.187,32.876
		c22.39-13.821,5.285-21.5,8.51-50.046c-13.344,12.211-19.442,31.204-10.688,46.748C439.834,60.588,426.936,56.33,434.221,41.475z"
		/>
</g>
<path fill-rule="evenodd" clip-rule="evenodd" fill="#43495C" d="M544.836,383.535h-19.277l9.598-22.4L544.836,383.535z
	 M539.877,349.375h-9.119l-24.638,56.396h10.077l5.762-13.518h26.477l5.68,13.518h10.398L539.877,349.375z M451.83,396.812
	l-6.318-6.4c-2.402,2.242-4.828,4.014-7.281,5.32c-2.453,1.305-5.385,1.961-8.797,1.961c-2.668,0-5.135-0.52-7.401-1.561
	c-2.266-1.041-4.227-2.467-5.879-4.279c-1.653-1.814-2.934-3.936-3.841-6.359c-0.904-2.428-1.357-5.027-1.357-7.801
	c0-2.771,0.453-5.359,1.357-7.758c0.907-2.4,2.188-4.494,3.841-6.281c1.652-1.787,3.613-3.199,5.879-4.238
	c2.267-1.041,4.733-1.561,7.401-1.561c3.199,0,6.049,0.641,8.559,1.92c2.506,1.281,4.879,2.961,7.117,5.039l6.32-7.279
	c-1.333-1.279-2.745-2.453-4.238-3.52c-1.494-1.066-3.121-1.984-4.88-2.762c-1.762-0.771-3.694-1.371-5.8-1.797
	c-2.105-0.428-4.441-0.641-7.001-0.641c-4.265,0-8.159,0.762-11.679,2.279c-3.52,1.52-6.558,3.602-9.12,6.24
	c-2.56,2.639-4.545,5.719-5.957,9.238c-1.413,3.521-2.122,7.281-2.122,11.279c0,4.053,0.721,7.84,2.162,11.359
	c1.438,3.52,3.426,6.572,5.958,9.16c2.532,2.586,5.534,4.625,9.001,6.119c3.465,1.492,7.253,2.24,11.357,2.24
	c2.613,0,5-0.229,7.158-0.682c2.162-0.453,4.149-1.117,5.961-1.998c1.812-0.881,3.506-1.922,5.08-3.121
	C448.884,399.732,450.391,398.357,451.83,396.812 M329.546,405.771h9.761v-55.994h-9.761V405.771z M258.14,368.055
	c0,2.893-1.038,5.199-3.134,6.904c-2.078,1.721-4.891,2.574-8.424,2.574h-14.439v-18.879h14.359c3.693,0,6.559,0.787,8.584,2.375
	C257.127,362.604,258.14,364.949,258.14,368.055 M269.9,405.771l-15.118-21.199c1.972-0.533,3.773-1.291,5.398-2.279
	c1.627-0.988,3.027-2.186,4.2-3.598c1.173-1.414,2.093-3.041,2.761-4.881c0.666-1.842,0.998-3.934,0.998-6.279
	c0-2.721-0.479-5.188-1.439-7.4c-0.959-2.213-2.334-4.078-4.119-5.6c-1.786-1.52-3.975-2.691-6.559-3.52
	c-2.586-0.826-5.479-1.238-8.68-1.238h-24.957v55.994h9.758v-19.52H244.5l13.801,19.52H269.9z M162.735,349.777h-41.595v55.994h9.76
	v-22.799h28.236v-8.879h-28.236v-15.439h31.835V349.777z M43.093,383.535H23.814l9.599-22.4L43.093,383.535z M38.132,349.375h-9.118
	L4.377,405.771h10.077l5.761-13.518h26.478l5.678,13.518H62.77L38.132,349.375z"/>
</svg>
