<svg enable-background="new 0 0 1700 900" viewBox="0 0 1700 900" xmlns="http://www.w3.org/2000/svg"><g fill="none" stroke-miterlimit="10"><circle cx="541.87" cy="439.68" r="94.11" stroke="#abcf37"/><circle cx="541.87" cy="439.68" r="74.95" stroke="#abcf37"/><circle cx="541.87" cy="439.68" r="60.58" stroke="#abcf37"/><circle cx="541.87" cy="439.68" r="51" stroke="#abcf37"/><path d="m.84 11.24c86.71 0 157.26 70.55 157.26 157.26s-70.55 157.26-157.26 157.26" opacity=".5" stroke="#abcf37"/><path d="m.84 43.25c69.06 0 125.25 56.19 125.25 125.25s-56.19 125.25-125.25 125.25" opacity=".5" stroke="#abcf37"/><path d="m.84 67.26c55.82 0 101.24 45.41 101.24 101.24 0 55.82-45.41 101.24-101.24 101.24" opacity=".5" stroke="#abcf37"/><path d="m.84 253.73c47.07 0 85.23-38.16 85.23-85.23s-38.16-85.23-85.23-85.23" opacity=".5" stroke="#abcf37"/><path d="m1699.73 887.58c-121.54 0-220.41-98.88-220.41-220.41s98.88-220.41 220.41-220.41" opacity=".4" stroke="#abcf37"/><path d="m1699.73 842.71c-96.79 0-175.54-78.75-175.54-175.54s78.75-175.54 175.54-175.54" opacity=".4" stroke="#abcf37"/><path d="m1699.73 809.06c-78.24 0-141.89-63.65-141.89-141.89s63.65-141.89 141.89-141.89" opacity=".4" stroke="#abcf37"/><path d="m1699.73 547.71c-65.97 0-119.46 53.48-119.46 119.46s53.48 119.46 119.46 119.46" opacity=".4" stroke="#abcf37"/><path d="m526.93 419.31h30.13" stroke="#6ebd46"/><path d="m526.93 461.62h30.13" stroke="#6ebd46"/><path d="m538.8 415.83h6.4" stroke="#6ebd46" stroke-linecap="round"/><path d="m531.86 436.69c5.62-5.62 14.78-5.62 20.4 0" stroke="#6ebd46" stroke-linecap="round"/><path d="m534.72 439.56c4.04-4.04 10.63-4.04 14.67 0" stroke="#6ebd46" stroke-linecap="round"/><path d="m537.59 442.42c2.47-2.47 6.48-2.46 8.94 0" stroke="#6ebd46" stroke-linecap="round"/><circle cx="542.06" cy="446.89" r="2.27" stroke="#6ebd46" stroke-linecap="round"/><path d="m557.25 415.94c0-2.06-1.69-3.75-3.75-3.75h-23.03c-2.06 0-3.75 1.69-3.75 3.75v47.47c0 2.06 1.69 3.75 3.75 3.75h23.03c2.06 0 3.75-1.69 3.75-3.75z" stroke="#6ebd46"/><circle cx="245.78" cy="594.46" opacity=".3" r="136.21" stroke="#abcf37"/><circle cx="245.78" cy="594.46" opacity=".3" r="108.48" stroke="#abcf37"/><circle cx="245.78" cy="594.46" opacity=".3" r="87.69" stroke="#abcf37"/><circle cx="245.78" cy="594.46" opacity=".3" r="73.82" stroke="#abcf37"/><path d="m230.84 574.09h30.13" stroke="#6ebd46"/><path d="m230.84 616.4h30.13" stroke="#6ebd46"/><path d="m242.71 570.61h6.4" stroke="#6ebd46" stroke-linecap="round"/><path d="m235.77 591.47c5.62-5.62 14.78-5.62 20.4 0" stroke="#6ebd46" stroke-linecap="round"/><path d="m238.63 594.34c4.04-4.04 10.63-4.04 14.67 0" stroke="#6ebd46" stroke-linecap="round"/><path d="m241.5 597.2c2.47-2.47 6.48-2.47 8.94 0" stroke="#6ebd46" stroke-linecap="round"/><circle cx="245.97" cy="601.67" r="2.27" stroke="#6ebd46" stroke-linecap="round"/><path d="m261.16 570.72c0-2.06-1.69-3.75-3.75-3.75h-23.03c-2.06 0-3.75 1.69-3.75 3.75v47.47c0 2.06 1.69 3.75 3.75 3.75h23.03c2.06 0 3.75-1.69 3.75-3.75z" stroke="#6ebd46"/><circle cx="1074.18" cy="673.71" opacity=".7" r="94.11" stroke="#abcf37"/><circle cx="1074.18" cy="673.71" opacity=".7" r="74.95" stroke="#abcf37"/><circle cx="1074.18" cy="673.71" opacity=".7" r="60.58" stroke="#abcf37"/><circle cx="1074.18" cy="673.71" opacity=".7" r="51" stroke="#abcf37"/><path d="m1059.24 653.34h30.13" stroke="#6ebd46"/><path d="m1059.24 695.65h30.13" stroke="#6ebd46"/><path d="m1071.1 649.86h6.4" stroke="#6ebd46" stroke-linecap="round"/><path d="m1064.16 670.72c5.62-5.62 14.78-5.62 20.4 0" stroke="#6ebd46" stroke-linecap="round"/><path d="m1067.03 673.59c4.04-4.04 10.63-4.04 14.67 0" stroke="#6ebd46" stroke-linecap="round"/><path d="m1069.89 676.45c2.47-2.47 6.48-2.47 8.94 0" stroke="#6ebd46" stroke-linecap="round"/><circle cx="1074.36" cy="680.92" r="2.27" stroke="#6ebd46" stroke-linecap="round"/><path d="m1089.55 649.97c0-2.06-1.69-3.75-3.75-3.75h-23.03c-2.06 0-3.75 1.69-3.75 3.75v47.47c0 2.06 1.69 3.75 3.75 3.75h23.03c2.06 0 3.75-1.69 3.75-3.75z" stroke="#6ebd46"/><circle cx="1339.16" cy="350.52" opacity=".5" r="94.11" stroke="#abcf37"/><circle cx="1339.16" cy="350.52" opacity=".5" r="74.95" stroke="#abcf37"/><circle cx="1339.16" cy="350.52" opacity=".5" r="60.58" stroke="#abcf37"/><circle cx="1339.16" cy="350.52" opacity=".5" r="51" stroke="#abcf37"/><path d="m1324.22 330.15h30.14" stroke="#6ebd46"/><path d="m1324.22 372.46h30.14" stroke="#6ebd46"/><path d="m1336.09 326.68h6.4" stroke="#6ebd46" stroke-linecap="round"/><path d="m1329.15 347.54c5.62-5.62 14.78-5.62 20.4 0" stroke="#6ebd46" stroke-linecap="round"/><path d="m1332.01 350.4c4.04-4.04 10.63-4.04 14.67 0" stroke="#6ebd46" stroke-linecap="round"/><path d="m1334.88 353.27c2.47-2.47 6.48-2.46 8.94 0" stroke="#6ebd46" stroke-linecap="round"/><circle cx="1339.35" cy="357.74" r="2.27" stroke="#6ebd46" stroke-linecap="round"/><path d="m1354.54 326.78c0-2.06-1.69-3.75-3.75-3.75h-23.03c-2.06 0-3.75 1.69-3.75 3.75v47.47c0 2.06 1.69 3.75 3.75 3.75h23.03c2.06 0 3.75-1.69 3.75-3.75z" stroke="#6ebd46"/><path d="m-.04 147.99h15.14" stroke="#6ebd46"/><path d="m-.04 190.3h15.14" stroke="#6ebd46"/><path d="m.01 144.51h3.23" stroke="#6ebd46"/><path d="m-.01 161.16c3.71-.01 7.41 1.4 10.24 4.22" stroke="#6ebd46"/><path d="m-.01 165.21c2.67-.01 5.34 1 7.37 3.03" stroke="#6ebd46"/><path d="m-.01 169.26c1.63-.01 3.26.61 4.51 1.85" stroke="#6ebd46"/><path d="m.01 195.84h11.53c2.06 0 3.75-1.69 3.75-3.75v-47.47c0-2.06-1.69-3.75-3.75-3.75h-11.53" stroke="#6ebd46"/><circle cx="959.17" cy="374.05" opacity=".25" r="123.83" stroke="#abcf37"/><circle cx="959.17" cy="374.05" opacity=".25" r="98.62" stroke="#abcf37"/><circle cx="959.17" cy="374.05" opacity=".25" r="79.71" stroke="#abcf37"/><circle cx="959.17" cy="374.05" opacity=".25" r="67.11" stroke="#abcf37"/><path d="m944.23 353.68h30.13" stroke="#6ebd46"/><path d="m944.23 395.99h30.13" stroke="#6ebd46"/><path d="m956.09 350.2h6.4" stroke="#6ebd46" stroke-linecap="round"/><path d="m949.15 371.07c5.62-5.62 14.78-5.62 20.4 0" stroke="#6ebd46" stroke-linecap="round"/><path d="m952.02 373.93c4.04-4.04 10.63-4.04 14.67 0" stroke="#6ebd46" stroke-linecap="round"/><path d="m954.88 376.79c2.47-2.47 6.48-2.47 8.94 0" stroke="#6ebd46" stroke-linecap="round"/><circle cx="959.35" cy="381.27" r="2.27" stroke="#6ebd46" stroke-linecap="round"/><path d="m974.54 350.31c0-2.06-1.69-3.75-3.75-3.75h-23.03c-2.06 0-3.75 1.69-3.75 3.75v47.47c0 2.06 1.69 3.75 3.75 3.75h23.03c2.06 0 3.75-1.69 3.75-3.75z" stroke="#6ebd46"/><g stroke="#d5de2d"><path d="m148.19 257.65 2.75 1.2"/><path d="m156.42 261.24 282.23 122.8" stroke-dasharray="5.9764 5.9764"/><path d="m441.39 385.24 2.75 1.19"/><g opacity=".5"><path d="m397.5 608.49 2.98.31"/><path d="m406.39 609.41 552.29 57.08" stroke-dasharray="5.9384 5.9384"/><path d="m961.63 666.8 2.99.31"/></g><g opacity=".5"><path d="m134.16 696.82-2.26 1.98"/><path d="m127.39 702.77-124.1 108.97" stroke-dasharray="6.0057 6.0057"/><path d="m1.03 813.72-2.25 1.98"/></g><path d="m641.85 485.49 2.75 1.19"/><path d="m650.12 489.04 317.24 136.08" stroke-dasharray="6.0033 6.0033"/><path d="m970.12 626.3 2.75 1.18"/><g opacity=".5"><path d="m1185.85 667.93h3"/><path d="m1194.85 667.92 260.73-.28" stroke-dasharray="5.9938 5.9938"/><path d="m1458.57 667.64h3"/></g><g opacity=".5"><path d="m1419.47 422.76 2.28 1.95"/><path d="m1426.49 428.77 92.35 79.16" stroke-dasharray="6.2378 6.2378"/><path d="m1521.21 509.96 2.28 1.95"/></g><g opacity=".5"><path d="m1270.88 433.49-1.93 2.3"/><path d="m1265.14 440.32-120.03 142.97" stroke-dasharray="5.9261 5.9261"/><path d="m1143.21 585.56-1.93 2.3"/></g><g opacity=".5"><path d="m1005.07 502.83 1.14 2.77"/><path d="m1008.63 511.48 22.98 55.81" stroke-dasharray="6.3531 6.3531"/><path d="m1032.82 570.22 1.14 2.78"/></g><g opacity=".5"><path d="m446.2 489.62-2.62 1.46"/><path d="m438.13 494.12-51.8 28.85" stroke-dasharray="6.2407 6.2407"/><path d="m383.61 524.48-2.62 1.46"/></g><g opacity=".5"><path d="m1228.78 355.89-2.99.21"/><path d="m1219.94 356.51-114.02 8.04" stroke-dasharray="5.8618 5.8618"/><path d="m1102.99 364.76-2.99.21"/></g><path d="m649.27 423.58 2.97-.44"/><path d="m658.2 422.26 151.88-22.56" stroke-dasharray="6.0215 6.0215"/><path d="m813.06 399.26 2.97-.44"/><g opacity=".5"><path d="m85.04 314.61 1.41 2.65"/><path d="m89.28 322.57 72.18 135.33" stroke-dasharray="6.0149 6.0149"/><path d="m162.88 460.56 1.41 2.65"/></g></g><path d="m.01 177.85c.59 0 1.17-.22 1.62-.66.89-.89.89-2.32 0-3.21-.45-.45-1.03-.67-1.62-.66" stroke="#6ebd46"/><path d="m1699.76 646.87h-15.14" stroke="#6ebd46"/><path d="m1699.76 689.19h-15.14" stroke="#6ebd46"/><path d="m1699.71 643.4h-3.23" stroke="#6ebd46"/><path d="m1699.73 660.04c-3.71-.01-7.41 1.4-10.23 4.22" stroke="#6ebd46"/><path d="m1699.73 664.09c-2.67-.01-5.34 1-7.37 3.03" stroke="#6ebd46"/><path d="m1699.73 668.14c-1.63-.01-3.26.61-4.51 1.85" stroke="#6ebd46"/><path d="m1699.71 694.72h-11.53c-2.06 0-3.75-1.69-3.75-3.75v-47.47c0-2.06 1.69-3.75 3.75-3.75h11.53" stroke="#6ebd46"/><path d="m1699.71 676.73c-.59 0-1.17-.22-1.62-.66-.89-.89-.89-2.32 0-3.21.45-.45 1.03-.67 1.62-.66" stroke="#6ebd46"/></g></svg>