<svg xmlns="http://www.w3.org/2000/svg" xml:space="preserve" fill="#1A171B" viewBox="0 0 379.2 81.7"><style>.st0{fill:#8f98a9}.st1{fill:#1a171b}</style><path d="m17.7 57.2-.3 3.8.2-.2c.9-1.2 1.4-3 1.5-5.7a70 70 0 0 0-1.7-15c-1-5.2-1.8-10.6-1.7-15.3 0-2.9.6-5.7 1.8-8.3A20 20 0 0 0 14.1 27c-.4 9.2 4 21 3.6 30.3zm28.1-42.8v-.1h.2c-.4-1.5-3-5-5.8-5-.7 0-1.1.1-1.5.3 2.8 1 4.9 3.8 5.5 5.8zM23.3 75.3H22c4.4.8 8.2 3.3 9.6 6.4l1.7-1c-1.6-3.4-5.5-5.4-10-5.4" class="st0"/><path d="M21.6 55.2c-.2 3.1-.9 5.3-2.2 7l1.3 1.6 7.5-5.5c3.7-2.7 5.7-6 5.6-11.8 0-7.2-3.4-18.3-3.4-26.8 0-7.3 2.8-12.7 9.1-12.7 4.3 0 7.7 4.4 8.3 6.8.2 1.2 0 1.8-1.1 2.5l-3 2v3.4l15-9.4c-2-3-7.2-8.6-17.4-8.6-12.2 0-23 9.5-23.4 21C17.6 34 22 46 21.6 55.3zm52.7 16.3L66.4 66c-1-.6-1-1.3-1-2.7v-9.6l20.9-12.8L71.9 25 49.4 38.1v3l4.7-2.6v29.8c0 1.7.6 2.8 1.7 3.5l11.9 7.8 16.9-9.8-1.4-3zm-9-37.9.9-.5L75 43.3l-9.7 6z" class="st1"/><path d="m67.7 38.5.1 2.8 1.9 2.4 1.7-1zM51.3 68.3V42.6l-1 .7-.5.2V69a7 7 0 0 0 2.8 5.5l10.8 7.2 1.4-.9-10.7-7a6.2 6.2 0 0 1-2.8-5.5" class="st0"/><path d="M43.7 70.8c-2.5-3-6.5-6.6-15.9-6.6C17.8 64.1 5.6 72 0 78.9l1 1.3a41 41 0 0 1 22.3-7.3c5.6 0 10.2 2.7 12.1 6.7l13-8.4-1.4-2.6z" class="st1"/><path d="M114 75.6h-2c4.5.7 7 3 8 5.9l1.5-1v-.3c-.4-1-2-4.5-7.6-4.6zm4-16.1c1.6-1.7 2.2-4.1 2.2-7.8V20.4c0-3.2-1-3.5-2.8-3.2h-.2c1.3 1.2 1.5 1.6 1.5 5.3v31.3c0 2-.2 4-.7 5.7" class="st0"/><path d="M132.7 70.3c-2.9-3-7-5-12.8-5-11 0-21.6 8-26 13l1.1 1.5a32.4 32.4 0 0 1 19-6.7c5.6.2 8.7 3.3 9.8 6.3l15.1-9-1.4-2.8z" class="st1"/><path d="M106.3 18c-2-.5-3.8-1.7-4.7-3.4-1.1-2-1.2-4.3-.4-6.8-4 5.7-1.2 10.8 5 10.2z" class="st0"/><path d="m187.5 71-1.4-.8c-1.4-.7-1.7-2-1.7-4.5V24.6c0-5.2 1.4-8.5 5.6-11l4.4-2.5-1.6-2.7-2 1c-2.5 1.3-4.2 2.2-7.8.2l-10.4-6-13.5 8.4-11-8.3-12.6 7.6c-.6-3.9-4.3-10.4-14.5-6.5l-7.4 3c-3.7 1.2-5.5-.5-3.2-3.7l1.7-2.5-2.4-1.6-4.2 5.5c-4.8 6.3-1.8 11.4 5.3 10.4l6.3-1c4.9-.8 5.5 1 5.5 5.6v31.3c0 4.3-.7 8-4 10.6l1 1.8 10.7-6.8c4.3-2.6 5.2-6.5 5.2-11.9V14.8l5.5-3 4.5 3.6c1.6 1.2 2 1.9 2 4.8v59.2h.8l7.4-3.7c4-2 4.6-2.7 4.6-7.2V15l5.7-3.4 12.6 7.4-1.7 1.3c-3 2.2-5.1 6-5.1 12.8v36.7c0 3.3.8 5 2.9 6.4l4.6 3.1 13.4-8-1.3-2.6z" class="st1"/><path d="m174.2 19.2-8.2-4.8-1.3.8 8.6 5.1a8 8 0 0 1 1-1zm-4.8 50.6-.1-36.7c0-3.4.4-6.3 1.4-8.6a17.9 17.9 0 0 0-2.8 10.7v35.9c0 3.2 1.3 6 3.7 7.8l3.8 2.6 1.4-.9-3.4-2.3c-2.8-2-4-4.6-4-8.5m-28.6-55.2-1.7.9 2.5 1.9c1.7 1.3 2 1.3 2 4.2v59.9h.8l.5-.3v-61c0-1.7-.2-2.2-1-3l-3.2-2.6z" class="st0"/><path d="M235 66V36.7c0-1.5-.5-2.7-2-3.5L219 25l-22.4 13.1v3.1l4.6-2.7V67c0 2.6.6 3.5 2.3 4.5l13.6 8 22.5-13.1-1-2.4-3.7 2zm-11.3 4.9h-.6l-8.8-5c-1.5-1-1.8-2-1.8-3.9V33.9l.7-.2 8.5 5c1.7 1 2 1.8 2 3.6V71z" class="st1"/><path d="M199 67V42.7l-1.1.6-.5.2v24.7c0 2.9 1.3 5 3.6 6.3l12.3 7.2 1.4-.8-12.3-7.4c-2.5-1.5-3.5-3.3-3.5-6.5zm21-26.5-5-3V39l2.8 1.6c2.2 1.2 2.2 1.4 2.2 3.6l-.1 22 1.5.9V42.7c0-1.3-.4-1.7-1.4-2.2" class="st0"/><path d="m291.9 70-4 2.3-1.4-.9c-1.5-.9-1.8-2-1.8-4.5V36c0-2.5-.6-3.6-2-4.7l-8.3-6.2-12.8 7.3-6.8-7.3-13.5 8.3 1.8 2.1 4.7-2.8 3.3 3.8v42.7h.8l7.1-3c2.6-1.2 3.4-2 3.4-5V35.6l4.4-2.5 5.1 4c1.4 1.2 1.6 2.2 1.6 4l.1 29.2c0 3.2 1 5 3.2 6.3l4.5 2.7 11.7-6.9z" class="st1"/><path d="M271.2 70.3v-29c0-1.8-.1-1.7-.8-2.2l-3.7-3-1.7.8 3.2 2.4c1.7 1.3 1.5 1.4 1.5 4v28.2c0 3.9 1.6 6.5 3.8 7.8l3.9 2.2 1.4-.8-3.3-1.9c-2.8-1.7-4.3-4.4-4.3-8.5M245.6 37l1.6 1.8v42.7h.9l.5-.2h.1V37.6l-1.4-1.6zm72.1 29 1.5 1V33l-1.5.9zm-20.1 1V44l-1.5.8v22.8c0 3.7 1.2 5.3 3 6.5l12 7.6 1.5-.9-11.6-7.3c-2.8-1.7-3.4-3.3-3.4-6.4z" class="st0"/><path d="M332.6 66V20.5c0-6.6-3-11-7.9-14l-4.8-3-15.2 8.8 3 1.4 5-2.6 3.2 1.8c3.4 2 5.7 5.8 5.7 9.8v1.7l-26 15v2.9l4.4-2.4v27.3c0 2.4.6 3.3 2.2 4.3l12.8 8 22.5-13-1-2.5zm-11 4.9h-.7l-7.6-4.9c-1.5-1-2-1.7-2-3.6V35l9.5-5.8.8.4V71z" class="st1"/><path d="m360.6 38.5.1 2.8 1.9 2.4 1.6-1z" class="st0"/><path d="m367.3 71.5-8-5.5c-1-.7-1.1-1.3-1.1-2.7v-9.6l21-12.8L364.7 25l-22.4 13.1v3l4.6-2.6v29.8c0 1.7.7 2.8 1.8 3.5l11.9 7.8 16.8-9.8-1.3-3zm-9.1-37.9 1-.5 8.7 10.2-9.7 6z" class="st1"/><path d="m317.7 23.8 1.5-.8v-.4c0-3-1.8-6-4.6-7.7l-2-1.2-1.3.9.7.4c3.7 2 5.7 4.6 5.7 8.8m27 44.5V42.6l-1 .7-.5.2v25.2c0 2.8 1 4.7 2.9 6l10.7 7 1.5-.9-10.8-7a6.1 6.1 0 0 1-2.8-5.5" class="st0"/></svg>