<?xml version="1.0" encoding="UTF-8"?>
<svg xmlns="http://www.w3.org/2000/svg" width="216" height="30" viewBox="0 0 216 30" fill="none">
  <path d="M18.1596 0.717773C19.5034 0.951678 20.8076 1.36973 22.0343 1.95983C20.2076 3.41066 17.9331 4.20044 15.5889 4.19785C13.2436 4.2011 10.9679 3.41129 9.14051 1.95983C10.3682 1.36948 11.6733 0.951416 13.0182 0.717773C13.8393 1.02571 14.7105 1.1833 15.5889 1.18282C16.4673 1.1833 17.3384 1.02571 18.1596 0.717773Z" fill="#3AF1A3"></path>
  <path d="M25.1348 3.9595C25.9681 4.65902 26.7207 5.44727 27.3788 6.30991C24.1981 9.29417 19.9765 10.9556 15.5889 10.9497C11.2013 10.9556 6.97962 9.29417 3.79893 6.30991C4.4564 5.44737 5.20829 4.65913 6.04094 3.9595C8.61589 6.37783 12.0352 7.72403 15.5889 7.7186C19.1419 7.72353 22.5604 6.37736 25.1348 3.9595Z" fill="#3AF1A3"></path>
  <path d="M2.01807 9.35109C1.58872 10.3446 1.27374 11.3826 1.07908 12.4456C4.4877 13.438 7.37842 15.6883 9.15129 18.7295C10.9315 21.7671 11.4586 25.3651 10.6231 28.7764C11.6531 29.1396 12.7211 29.3878 13.807 29.5166C14.834 25.3047 14.1801 20.8641 11.981 17.1154C9.79276 13.3602 6.22544 10.5802 2.01807 9.35109Z" fill="#3AF1A3"></path>
  <path d="M1.72371 20.0297C1.25814 18.7633 0.973478 17.4391 0.87793 16.0952C3.06386 16.9311 4.89392 18.481 6.0635 20.487C7.23885 22.49 7.68383 24.8301 7.32432 27.1177C6.19401 26.3606 5.17506 25.453 4.29638 24.4204C4.15485 23.5673 3.85764 22.7466 3.4192 21.9983C2.97997 21.2458 2.40541 20.5786 1.72371 20.0297Z" fill="#3AF1A3"></path>
  <path d="M22.0274 18.7295C23.8003 15.6883 26.691 13.438 30.0996 12.4456C29.905 11.3826 29.59 10.3446 29.1606 9.35109C24.955 10.584 21.3882 13.362 19.1944 17.1133C17.0006 20.8646 16.3469 25.3037 17.3678 29.5166C18.4537 29.3878 19.5217 29.1396 20.5517 28.7764C19.7174 25.3646 20.2458 21.7666 22.0274 18.7295Z" fill="#3AF1A3"></path>
  <path d="M29.455 20.0326C28.0833 21.1386 27.1684 22.7016 26.8823 24.4272C26.0033 25.458 24.9844 26.364 23.8544 27.1196C23.4985 24.8322 23.9431 22.4932 25.1149 20.4889C26.2867 18.4847 28.1156 16.9348 30.2998 16.0952C30.2048 17.44 29.9205 18.7652 29.455 20.0326Z" fill="#3AF1A3"></path>
  <path d="M211.806 16.7168C212.263 16.7168 212.665 16.8078 213.012 16.9898C213.359 17.1646 213.631 17.394 213.83 17.6779V16.8151H215.39V22.9096C215.39 23.4702 215.276 23.969 215.047 24.4059C214.819 24.85 214.476 25.1995 214.019 25.4544C213.561 25.7165 213.008 25.8476 212.359 25.8476C211.489 25.8476 210.774 25.6473 210.213 25.2469C209.66 24.8464 209.347 24.3003 209.273 23.6086H210.811C210.892 23.8853 211.065 24.1037 211.331 24.2639C211.603 24.4314 211.932 24.5151 212.315 24.5151C212.765 24.5151 213.13 24.3804 213.41 24.111C213.69 23.8489 213.83 23.4484 213.83 22.9096V21.9703C213.631 22.2542 213.355 22.4909 213.001 22.6802C212.654 22.8695 212.256 22.9642 211.806 22.9642C211.29 22.9642 210.818 22.8331 210.39 22.571C209.963 22.3089 209.624 21.9411 209.373 21.4679C209.129 20.9873 209.008 20.4376 209.008 19.8186C209.008 19.207 209.129 18.6646 209.373 18.1913C209.624 17.718 209.959 17.3539 210.379 17.0991C210.807 16.8442 211.283 16.7168 211.806 16.7168ZM213.83 19.8405C213.83 19.4691 213.757 19.1524 213.609 18.8903C213.462 18.6209 213.263 18.417 213.012 18.2786C212.761 18.133 212.492 18.0602 212.204 18.0602C211.917 18.0602 211.651 18.1294 211.408 18.2677C211.165 18.4061 210.966 18.6099 210.811 18.8794C210.663 19.1415 210.59 19.4546 210.59 19.8186C210.59 20.1827 210.663 20.5031 210.811 20.7798C210.966 21.0492 211.165 21.2567 211.408 21.4023C211.659 21.548 211.924 21.6208 212.204 21.6208C212.492 21.6208 212.761 21.5516 213.012 21.4133C213.263 21.2676 213.462 21.0637 213.609 20.8016C213.757 20.5322 213.83 20.2118 213.83 19.8405Z" fill="#B9B9C0"></path>
  <path d="M206.483 17.7562C206.682 17.4358 206.94 17.1846 207.257 17.0025C207.582 16.8205 207.951 16.7295 208.364 16.7295V18.335H207.954C207.468 18.335 207.099 18.4479 206.848 18.6736C206.605 18.8993 206.483 19.2925 206.483 19.8532V22.8677H204.935V16.8169H206.483V17.7562Z" fill="#B9B9C0"></path>
  <path d="M200.602 22.9642C200.012 22.9642 199.481 22.8368 199.009 22.5819C198.537 22.3198 198.165 21.9521 197.892 21.4788C197.626 21.0055 197.494 20.4594 197.494 19.8405C197.494 19.2216 197.63 18.6755 197.903 18.2022C198.183 17.7289 198.563 17.3648 199.042 17.11C199.522 16.8479 200.056 16.7168 200.646 16.7168C201.236 16.7168 201.771 16.8479 202.25 17.11C202.729 17.3648 203.105 17.7289 203.378 18.2022C203.658 18.6755 203.799 19.2216 203.799 19.8405C203.799 20.4594 203.655 21.0055 203.367 21.4788C203.087 21.9521 202.703 22.3198 202.217 22.5819C201.737 22.8368 201.199 22.9642 200.602 22.9642ZM200.602 21.6317C200.882 21.6317 201.144 21.5662 201.387 21.4351C201.638 21.2968 201.837 21.0929 201.984 20.8235C202.132 20.5541 202.206 20.2264 202.206 19.8405C202.206 19.2653 202.051 18.8247 201.741 18.5189C201.439 18.2058 201.066 18.0493 200.624 18.0493C200.182 18.0493 199.809 18.2058 199.507 18.5189C199.212 18.8247 199.064 19.2653 199.064 19.8405C199.064 20.4157 199.208 20.8599 199.496 21.173C199.791 21.4788 200.159 21.6317 200.602 21.6317Z" fill="#B9B9C0"></path>
  <path d="M195.693 22.9445C195.413 22.9445 195.181 22.8608 194.996 22.6933C194.819 22.5186 194.731 22.3038 194.731 22.0489C194.731 21.7941 194.819 21.5829 194.996 21.4154C195.181 21.2407 195.413 21.1533 195.693 21.1533C195.966 21.1533 196.191 21.2407 196.368 21.4154C196.545 21.5829 196.633 21.7941 196.633 22.0489C196.633 22.3038 196.545 22.5186 196.368 22.6933C196.191 22.8608 195.966 22.9445 195.693 22.9445Z" fill="#B9B9C0"></path>
  <path d="M194.094 10.7656L190.511 22.8672H187.17L184.936 14.4136L182.701 22.8672H179.339L175.733 10.7656H178.874L181.042 19.9838L183.387 10.7656H186.661L188.962 19.9619L191.13 10.7656H194.094Z" fill="#3AF1A3"></path>
  <path d="M168.44 23.0621C167.26 23.0621 166.198 22.8073 165.254 22.2976C164.311 21.7733 163.566 21.0379 163.02 20.0914C162.489 19.1448 162.224 18.0526 162.224 16.8148C162.224 15.5769 162.496 14.4847 163.042 13.5382C163.603 12.5916 164.362 11.8635 165.321 11.3538C166.279 10.8295 167.349 10.5674 168.528 10.5674C169.708 10.5674 170.778 10.8295 171.736 11.3538C172.695 11.8635 173.447 12.5916 173.993 13.5382C174.553 14.4847 174.833 15.5769 174.833 16.8148C174.833 18.0526 174.546 19.1448 173.971 20.0914C173.41 21.0379 172.643 21.7733 171.67 22.2976C170.711 22.8073 169.635 23.0621 168.44 23.0621ZM168.44 20.3972C169 20.3972 169.524 20.2661 170.011 20.004C170.512 19.7273 170.91 19.3195 171.205 18.7807C171.5 18.2419 171.648 17.5866 171.648 16.8148C171.648 15.6643 171.338 14.7833 170.719 14.1716C170.114 13.5454 169.369 13.2323 168.484 13.2323C167.599 13.2323 166.855 13.5454 166.25 14.1716C165.66 14.7833 165.365 15.6643 165.365 16.8148C165.365 17.9652 165.653 18.8535 166.228 19.4797C166.818 20.0914 167.555 20.3972 168.44 20.3972Z" fill="#3AF1A3"></path>
  <path d="M155.163 10.5928C156.623 10.5928 157.803 11.0515 158.703 11.9689C159.602 12.8718 160.052 14.1388 160.052 15.7698V22.8691H156.955V16.1848C156.955 15.2237 156.712 14.4883 156.225 13.9786C155.738 13.4543 155.075 13.1922 154.234 13.1922C153.379 13.1922 152.7 13.4543 152.199 13.9786C151.712 14.4883 151.469 15.2237 151.469 16.1848V22.8691H148.372V10.7675H151.469V12.2748C151.882 11.7505 152.405 11.3428 153.039 11.0515C153.688 10.7457 154.396 10.5928 155.163 10.5928Z" fill="#3AF1A3"></path>
  <path d="M146.696 10.7656L143.112 22.8672H139.772L137.537 14.4136L135.303 22.8672H131.94L128.334 10.7656H131.476L133.644 19.9838L135.989 10.7656H139.263L141.564 19.9619L143.732 10.7656H146.696Z" fill="#38453C"></path>
  <path d="M121.041 23.0621C119.861 23.0621 118.799 22.8073 117.855 22.2976C116.911 21.7733 116.166 21.0379 115.621 20.0914C115.09 19.1448 114.824 18.0526 114.824 16.8148C114.824 15.5769 115.097 14.4847 115.643 13.5382C116.203 12.5916 116.963 11.8635 117.921 11.3538C118.88 10.8295 119.949 10.5674 121.129 10.5674C122.309 10.5674 123.378 10.8295 124.337 11.3538C125.295 11.8635 126.048 12.5916 126.593 13.5382C127.154 14.4847 127.434 15.5769 127.434 16.8148C127.434 18.0526 127.146 19.1448 126.571 20.0914C126.011 21.0379 125.244 21.7733 124.27 22.2976C123.312 22.8073 122.235 23.0621 121.041 23.0621ZM121.041 20.3972C121.601 20.3972 122.125 20.2661 122.611 20.004C123.113 19.7273 123.511 19.3195 123.806 18.7807C124.101 18.2419 124.248 17.5866 124.248 16.8148C124.248 15.6643 123.939 14.7833 123.319 14.1716C122.715 13.5454 121.97 13.2323 121.085 13.2323C120.2 13.2323 119.455 13.5454 118.85 14.1716C118.261 14.7833 117.966 15.6643 117.966 16.8148C117.966 17.9652 118.253 18.8535 118.828 19.4797C119.418 20.0914 120.156 20.3972 121.041 20.3972Z" fill="#38453C"></path>
  <path d="M109.751 12.6461C110.15 12.0054 110.666 11.5029 111.3 11.1389C111.949 10.7748 112.686 10.5928 113.512 10.5928V13.8038H112.694C111.72 13.8038 110.983 14.0296 110.481 14.481C109.995 14.9324 109.751 15.7188 109.751 16.8402V22.8691H106.654V10.7675H109.751V12.6461Z" fill="#38453C"></path>
  <path d="M100.808 12.6461C101.206 12.0054 101.722 11.5029 102.357 11.1389C103.006 10.7748 103.743 10.5928 104.569 10.5928V13.8038H103.75C102.777 13.8038 102.04 14.0296 101.538 14.481C101.051 14.9324 100.808 15.7188 100.808 16.8402V22.8691H97.7109V10.7675H100.808V12.6461Z" fill="#38453C"></path>
  <path d="M89.0455 23.0621C87.8656 23.0621 86.8037 22.8073 85.8599 22.2976C84.916 21.7733 84.1712 21.0379 83.6255 20.0914C83.0946 19.1448 82.8291 18.0526 82.8291 16.8148C82.8291 15.5769 83.1019 14.4847 83.6476 13.5382C84.2081 12.5916 84.9676 11.8635 85.9262 11.3538C86.8849 10.8295 87.9541 10.5674 89.134 10.5674C90.3138 10.5674 91.3831 10.8295 92.3417 11.3538C93.3003 11.8635 94.0525 12.5916 94.5982 13.5382C95.1586 14.4847 95.4388 15.5769 95.4388 16.8148C95.4388 18.0526 95.1512 19.1448 94.576 20.0914C94.0156 21.0379 93.2487 21.7733 92.2753 22.2976C91.3167 22.8073 90.2401 23.0621 89.0455 23.0621ZM89.0455 20.3972C89.6059 20.3972 90.1295 20.2661 90.6162 20.004C91.1176 19.7273 91.5158 19.3195 91.8108 18.7807C92.1057 18.2419 92.2532 17.5866 92.2532 16.8148C92.2532 15.6643 91.9435 14.7833 91.3241 14.1716C90.7194 13.5454 89.9746 13.2323 89.0897 13.2323C88.2048 13.2323 87.46 13.5454 86.8554 14.1716C86.2654 14.7833 85.9705 15.6643 85.9705 16.8148C85.9705 17.9652 86.2581 18.8535 86.8332 19.4797C87.4232 20.0914 88.1606 20.3972 89.0455 20.3972Z" fill="#38453C"></path>
  <path d="M75.6425 10.5928C77.1468 10.5928 78.3562 11.0515 79.2706 11.9689C80.1997 12.8718 80.6643 14.1388 80.6643 15.7698V22.8691H77.5672V16.1848C77.5672 15.2383 77.3238 14.5174 76.8371 14.0223C76.3504 13.5126 75.6868 13.2577 74.8461 13.2577C74.0055 13.2577 73.3344 13.5126 72.833 14.0223C72.3463 14.5174 72.1029 15.2383 72.1029 16.1848V22.8691H69.0058V16.1848C69.0058 15.2383 68.7625 14.5174 68.2758 14.0223C67.7891 13.5126 67.1254 13.2577 66.2848 13.2577C65.4294 13.2577 64.751 13.5126 64.2495 14.0223C63.7628 14.5174 63.5195 15.2383 63.5195 16.1848V22.8691H60.4224V10.7675H63.5195V12.2311C63.9177 11.7214 64.4265 11.3209 65.0459 11.0297C65.6801 10.7384 66.3733 10.5928 67.1254 10.5928C68.0841 10.5928 68.9395 10.7967 69.6916 11.2044C70.4438 11.5976 71.0263 12.1655 71.4393 12.9082C71.8375 12.2092 72.4127 11.6486 73.1648 11.2262C73.9317 10.8039 74.7576 10.5928 75.6425 10.5928Z" fill="#38453C"></path>
  <path d="M51.7574 23.0621C50.5775 23.0621 49.5157 22.8073 48.5718 22.2976C47.6279 21.7733 46.8831 21.0379 46.3374 20.0914C45.8065 19.1448 45.541 18.0526 45.541 16.8148C45.541 15.5769 45.8139 14.4847 46.3595 13.5382C46.92 12.5916 47.6795 11.8635 48.6381 11.3538C49.5968 10.8295 50.666 10.5674 51.8459 10.5674C53.0257 10.5674 54.095 10.8295 55.0536 11.3538C56.0122 11.8635 56.7644 12.5916 57.3101 13.5382C57.8705 14.4847 58.1507 15.5769 58.1507 16.8148C58.1507 18.0526 57.8631 19.1448 57.288 20.0914C56.7275 21.0379 55.9606 21.7733 54.9872 22.2976C54.0286 22.8073 52.952 23.0621 51.7574 23.0621ZM51.7574 20.3972C52.3178 20.3972 52.8414 20.2661 53.3281 20.004C53.8295 19.7273 54.2277 19.3195 54.5227 18.7807C54.8176 18.2419 54.9651 17.5866 54.9651 16.8148C54.9651 15.6643 54.6554 14.7833 54.036 14.1716C53.4313 13.5454 52.6865 13.2323 51.8016 13.2323C50.9167 13.2323 50.172 13.5454 49.5673 14.1716C48.9773 14.7833 48.6824 15.6643 48.6824 16.8148C48.6824 17.9652 48.97 18.8535 49.5452 19.4797C50.1351 20.0914 50.8725 20.3972 51.7574 20.3972Z" fill="#38453C"></path>
  <path d="M41.3445 13.2781V19.1323C41.3445 19.5401 41.4403 19.8386 41.632 20.0279C41.8385 20.2027 42.1777 20.29 42.6497 20.29H44.0876V22.8676H42.1409C39.5304 22.8676 38.2252 21.6152 38.2252 19.1105V13.2781H36.7651V10.7661H38.2252V7.77344H41.3445V10.7661H44.0876V13.2781H41.3445Z" fill="#38453C"></path>
</svg>
